<?xml version="1.0" encoding="UTF-8"?><svg id="b" xmlns="http://www.w3.org/2000/svg" viewBox="0 0 121.7 73.5"><defs><style>.d{fill:#f8f5b6;}.e{fill:#f8ee51;}.f{fill:#fff;}</style></defs><g id="c"><g><path class="d" d="m38.43,13.3c4.75.56,7.9,9.72,14.01,28.02h0c.08.2,3.03,6.39,2.4,6.81-.99.65-10.31-13.21-15.61-21.62-3.49-5.53-5.99-9.89-4.4-12.01.77-1.03,2.37-1.35,3.6-1.2Z"/><path class="d" d="m33.23,24.11c-3.71-2.26-10.17-5.28-11.61-3.6-.96,1.11.46,4.12,2,6,2.57,3.13,6.21,4.01,7.61,4.4,11.45,3.24,17.26,14.93,18.41,14.01,1.2-.95-4.67-13.67-16.41-20.82Z"/><path class="d" d="m46.84,48.13c.9-1.04-2.93-5.68-3.2-6-4-4.79-7.69-5.98-14.01-9.61-10.34-5.93-14.33-10.71-16.41-9.21-1.47,1.06-.87,4.44-.8,4.8.44,2.45,1.98,4.11,3.2,5.2,4.26,3.81,9.21,4.74,14.01,6.41,10.83,3.76,16.17,9.6,17.21,8.41Z"/><path class="d" d="m39.63,48.53c-8.66-6.7-15.08-6.75-18.01-6.41-.56.07-5.03.58-5.2,2-.16,1.31,3.43,2.74,5.6,3.6,4.15,1.65,6.47,1.77,14.01,3.2,5.81,1.1,8.19,1.75,8.41,1.2.25-.62-2.49-2.3-4.8-3.6Z"/><path class="d" d="m2.4,39.72c-.85,2.15,4.48,6.08,6,7.21,4.52,3.34,8.86,4.75,12.81,6,.94.3,5.06,1.58,10.81,2.4,4.59.66,11.07,1.14,11.21.4.1-.53-3.21-.91-7.21-2.8-9.68-4.57-9.59-11.48-18.01-14.01-3.3-.99-6.45-.88-8.81-.8-3.36.12-6.26.22-6.81,1.6Z"/><path class="d" d="m2.4,55.74c8.18,4.16,23.84,3.76,28.82,3.6,9.42-.29,11.59-.46,11.61-.8.02-.52-4.97-.52-11.61-2-14.24-3.17-19.01-9.3-26.42-6.81-.48.16-4.84,1.67-4.8,3.6.02,1.05,1.34,1.86,2.4,2.4Z"/><path class="d" d="m36.43,64.14c-.05-.14-.84.02-2.21.32-9.22,2.04-13.83,3.05-18.61,4.88-.64.25-8.63,3.31-8.41,4,.21.65,7.54-.96,13.61-2.8,8.17-2.49,15.78-5.94,15.61-6.41Z"/><path class="d" d="m36.83,60.54c-.21-2-15.48-3.3-28.02,2-1.26.53-6.29,2.66-6,4,.22,1.05,3.6,1.15,5.6,1.2,6.08.15,11.19-1.07,16.81-2.8,7.79-2.4,11.69-3.61,11.61-4.4Z"/><path class="d" d="m50.84,6.1c1.56,1.79,2.66,2.66,3.2,3.2,3.6,3.61,2.14,12.52,1.6,18.81-.4,4.67-.59,11.17.4,19.22-3.84-8.91-6.35-16.58-8.01-22.42,0,0-2.08-7.31-2-17.21,0-1.12.07-5.38,1.2-5.6.71-.14,1.34,1.41,3.6,4Z"/><path class="d" d="m62.85,5.7c-1.94,8.77-2.69,15.65-3.44,21.46-.14,1.07-.37,2.89-.57,5.36-.17,2.24-.25,4.14-.3,5.65-.06,1.61-.09,2.97-.1,3.96.08-.45.23-1.23.44-2.2,1.3-5.94,3.05-10.14,7.16-20.62,1.96-4.99,2.44-6.27,2.4-8.41-.08-4.7-2.58-9.41-4-9.21-.66.09-.98,1.22-1.6,4Z"/><path class="d" d="m65.25,41.73c.97-1.13,2.37-2.78,4-4.8,6.09-7.56,9.14-11.34,10.41-15.21,1.03-3.13,1.04-6.68,1.07-13.77,0-.83,0-1.34-.27-1.44-1.61-.65-9.98,15.08-11.61,23.62-.08.44-.33,1.78-.8,3.6-.89,3.44-1.98,6.17-2.8,8.01Z"/><path class="d" d="m61.25,39.32c.1.05,1.18-1.81,1.88-3.13.25-.48,1.58-2.98,2.6-5.85.98-2.76,1.89-6.48,3.13-15.04.97-6.66,1.02-8.6,2.8-11.21,1.45-2.12,4-4.61,5.2-4,1.13.57.64,3.74.4,5.2-1.17,7.12-4.5,11.35-8.01,17.21-5.18,8.68-8.2,16.71-8.01,16.81Z"/><path class="d" d="m85.27,4.9c.44.13,1.28.81,1.2,7.21-.08,5.9-.12,9.17-1.6,13.61-1.53,4.58-3.69,7.72-4.8,9.21-2.45,3.25-5.85,6.43-6.41,6-.38-.29.67-2.12,1.6-4,2.86-5.76,4.55-11.77,5.2-16.01,1.05-6.86-.29-11.28,2.8-14.81.37-.42,1.26-1.41,2-1.2Z"/><path class="d" d="m80.86,48.13c-.12-.32,3.76-1.83,12.41-5.6,8.24-3.6,10.3-4.66,10.81-4,.67.87-1.45,4.56-4.8,6.41-3.03,1.67-4.73.54-11.21,1.6-4.54.75-7.11,1.86-7.21,1.6Z"/><path class="d" d="m118.09,27.31c-.63-1.39-6.88-.23-11.61,1.6-5.36,2.07-4.27,3.26-11.61,6.81-4.29,2.07-7.62,3.09-10.81,6-.43.39-1.19,1.12-2.4,2-3.2,2.32-6.03,3.13-6,3.2.04.1,6.66-2.34,11.61-4,12.15-4.09,14.37-3.53,20.42-6.81,5.18-2.8,11.09-7.3,10.41-8.81Z"/><path class="d" d="m117.69,13.7c-1.82-1.68-7.81,2.11-10.81,4-2.82,1.78-6.47,4.38-11.61,9.21-5.25,4.93-6.23,6.71-12.01,12.01-2.52,2.31-4.65,4.1-6,5.2,5.54-4.08,10.35-6.76,13.61-8.41,5.55-2.81,12.21-5.49,20.42-10.81,1.96-1.27,6.1-4.05,6.81-8.41.12-.77.34-2.12-.4-2.8Z"/><path class="d" d="m83.27,35.32c-3.6,2.82-4.08,3.05-4,3.2.71,1.31,34.71-23,39.23-26.42.89-.67,3.14-2.43,3.2-4.8.01-.41.03-1.25-.4-1.6-1.36-1.11-6.47,3.08-12.81,8.41-13.77,11.56-17.25,14.98-25.22,21.22Z"/><path class="d" d="m107.29,2.9c-3.16-1.2-8.9,7.25-13.61,13.61-5.27,7.11-13.17,16.9-24.42,28.02,9.8-5.78,41.28-25.01,40.03-37.23-.09-.92-.39-3.79-2-4.4Z"/><path class="f" d="m86.87,16.51c1.73-.67,3.47-1.33,5.2-2"/><path class="e" d="m35.23,68.55c-1.8-2.74-.54-6.43,0-8.01.97-2.86,2.77-6.09,7.61-10.01,5.84-4.73,13.65-11.06,24.42-10.41,2.85.17,5.18.46,7.28,1.25,2.04.77,5.45,2.06,7.53,5.55.2.34,1.99,3.41,1.6,6.81-.63,5.49-6.61,8.74-12.81,12.01-16.08,8.47-28.27,6.85-32.43,5.2-2.04-.81-2.88-1.91-3.2-2.4Z"/></g></g></svg>