<?xml version="1.0" encoding="UTF-8"?><svg id="b" xmlns="http://www.w3.org/2000/svg" viewBox="0 0 216.34 159.73"><defs><style>.d{fill:#eef0ab;}.e{fill:#117692;}.f{opacity:.47;}</style></defs><g id="c"><g class="f"><path class="e" d="m26.09,6.35c6.86,5.31,11.84,13.47,13.74,16.59,5.22,8.56,6.04,15.28,6.11,15.49,1.65,7.24,4.92,14.18,7.5,19.01,4.4,8.24,4.39,9.94,7.86,13.11,1.22,1.11,4.03,3.52,7.41,5.94,4.53,3.25,6.49,3.95,7.44,5.04,2.41,2.74-5.66,3.11-6.32,2.48-1.29-1.21,17.12-13.78,40.14,2.24,10.21,7.11,23.82,21.48,30.66,23.75,1.97.65,3.6.37,6.24,2.36,2.57,1.94,3.4,4,6.48,6.32,2.59,1.95,3.8,1.83,4.66,2.63,3.4,3.17-11.04,9.21-10.95,9.3.02.02.99-.15,1.61-.91.05-.06.1-.12.17-.16l13.3,10.88c.63,3.14.63,7.2-3.06,8.97-1.55.74-3.83,1.84-9.42.26-4-1.13-7.23-2.92-18.37-8.65-16.41-8.45-13.19-6.51-19.6-9.96-16.74-9.01-30.86-16.71-41.95-27.5-2.1-2.04-3.39-3.51-4.75-5.07-10.55-12.05-9.18-16.14-15.26-31.63-1.18-3-3.1-7.2-6.94-15.61-5.82-12.72-5.09-10.3-9.49-19.87-4.96-10.78-7.4-16.16-10.23-18.74C15.55,5.78,2.09,3.11,0,2.72,6.56-2.14,17.61-.22,26.09,6.35Z"/></g><path class="d" d="m128.54,11.36c5.14,3.47,5.11,13.66,5.1,17.55-.03,10.68-4.73,21.94-4.82,22.26-3.96,11.45-5.36,20.96-5.9,27.3-.92,10.83-2.41,13.87-.24,16.49.76.92,2.68,2.75,5.38,4.11,3.62,1.83,5.79,1.38,6.21,2.48,1.05,2.77-10.77,10.47-11.18,9.93-.78-1.03,36.43-39.48,55.26-31.04,8.35,3.74,15.2,17.45,22.97,15.52,2.24-.56,4.81-2.48,6.83-1.24,1.97,1.21,1.35,4.16,3.73,5.59,2,1.2,3.82-.06,4.35.62,2.07,2.68-23.78,26.04-23.72,26.11.01.02,1.53-1.12,3.09-3.02.12-.15.25-.3.38-.44l9.47,7.75c-1.85,5.05-5.38,12.27-12.2,18.65-2.86,2.68-7.06,6.61-13.66,8.69-4.72,1.49-7.76,1.11-18.63.62-16.02-.72-13.13-.07-19.25-.62-15.99-1.43-29.4-2.82-35.79-12.35-1.21-1.81-1.76-3.3-2.35-4.88-4.53-12.24,1-20.72,5.85-43,.94-4.31,1.87-10.12,3.73-21.73,2.81-17.58,1.73-13.9,3.82-27.1,2.35-14.88,3.55-22.31,1.77-24.44-4.72-5.64-21.59,1.37-24.21,2.48,13.59-14.38,27.66-20.59,34.01-16.31Z"/></g></svg>